<?xml version="1.0" encoding="UTF-8"?><!DOCTYPE svg PUBLIC "-//W3C//DTD SVG 1.1//EN" "http://www.w3.org/Graphics/SVG/1.1/DTD/svg11.dtd"><svg xmlns="http://www.w3.org/2000/svg"><defs>
        <style>
            .cls-1{fill:#77ad4b}
        </style>
    
        <style>
            .cls-1{fill:#77ad4b}
        </style>
    
        <style>
            .cls-1{fill:#77ad4b}
        </style>
    
        <style>
            .cls-1{fill:#77ad4b}
        </style>
    
        <style>
            .cls-1{fill:#77ad4b}
        </style>
    
        <style>
            .cls-1{fill:#77ad4b}
        </style>
    
        <style>
            .cls-1{fill:#77ad4b}
        </style>
    
        <style>
            .cls-1{fill:#77ad4b}
        </style>
    
        <style>
            .cls-1{fill:#77ad4b}
        </style>
    </defs><symbol id="icon-accordion1" viewBox="0 0 69.01 56.99">
    
    <title>
        accordion-ic1
    </title>
    <g id="Layer_2" data-name="Layer 2">
        <g id="Layer_1-2" data-name="Layer 1">
            <path id="Form_2_Kopie" data-name="Form 2 Kopie" class="cls-1" d="M23.3 27.08a1.75 1.75 0 0 0 1.77-1.73v-1.61q-3.49-.1-7-.25a3 3 0 0 1-1.38-.42v2.28a1.75 1.75 0 0 0 1.77 1.73zm20.65-3.34v1.61a1.75 1.75 0 0 0 1.77 1.73h4.8a1.75 1.75 0 0 0 1.77-1.73v-2.28a3 3 0 0 1-1.38.42q-3.47.15-6.96.25zm8.92-3.09v-5.26a10.56 10.56 0 0 0-.76-3.92l3.1-.27a1.89 1.89 0 0 0 1.75-2 1.91 1.91 0 0 0-2.09-1.71l-2.06.18a2.84 2.84 0 0 0-2.05 1.14l-2.62-4.98a5.66 5.66 0 0 0-4-2.9A50.54 50.54 0 0 0 34.51 0h-.24a50 50 0 0 0-9.45.93 5.67 5.67 0 0 0-3.94 2.9l-2.62 4.95a2.84 2.84 0 0 0-2.05-1.14l-2.06-.18a1.91 1.91 0 0 0-2.09 1.71 1.89 1.89 0 0 0 1.73 2l3.1.27a10.54 10.54 0 0 0-.76 3.92v5.26a2.06 2.06 0 0 0 2 2c5.19.24 10.61.38 16.24.38h.12q8.51 0 16.36-.38a2.06 2.06 0 0 0 2.01-1.97zM22.61 4.7a3.69 3.69 0 0 1 2.59-1.91 48.53 48.53 0 0 1 9.08-.89h.23a49.22 49.22 0 0 1 9.3.9 3.7 3.7 0 0 1 2.6 1.91l2.34 4.11c-4.53-.41-9.49-.68-14.82-.69a126.35 126.35 0 0 0-13.52.69c.47-.92 2.2-4.12 2.2-4.12zM26.28 17a1 1 0 0 1-.73.72 11.6 11.6 0 0 1-3.71.1 5.14 5.14 0 0 1-2.17-.8 1.36 1.36 0 0 1-.67-1.13v-1.48a.68.68 0 0 1 .54-.66h.09l1.22-.12a2.33 2.33 0 0 1 1.35.27c.23.13.5.28.8.43.86.46 1.2.63 1.83 1 .29.16.68.38 1.14.66a.75.75 0 0 1 .37.69 2.26 2.26 0 0 1-.05.35zm14.48 4.56a.68.68 0 0 1-.68.68h-11a.68.68 0 0 1-.69-.67v-.74a.68.68 0 0 1 .69-.67h11a.68.68 0 0 1 .69.67v.74zM49.94 17a5.12 5.12 0 0 1-2.17.8 11.61 11.61 0 0 1-3.71-.1 1 1 0 0 1-.73-.72 2.26 2.26 0 0 1 0-.35.75.75 0 0 1 .27-.63c.46-.28.86-.5 1.14-.66.63-.35 1-.52 1.83-1 .3-.15.57-.3.8-.43a2.33 2.33 0 0 1 1.35-.27l1.22.12h.09a.68.68 0 0 1 .54.66v1.48a1.35 1.35 0 0 1-.63 1.1zm-30 37.06H11V14.6a1 1 0 0 0-1-1H4a1 1 0 0 0-1 1v39.49h-.6A2.35 2.35 0 0 0 0 56.41a.59.59 0 0 0 .59.59h21.08a.59.59 0 0 0 .6-.58 2.35 2.35 0 0 0-2.37-2.32zm8.39-26.65H13.82V25a1.56 1.56 0 0 0-1.58-1.54.65.65 0 0 0-.66.63v8.82a.65.65 0 0 0 .66.64A1.56 1.56 0 0 0 13.82 32v-2.37h13.31a1.68 1.68 0 0 0 1.7-1.63.54.54 0 0 0-.54-.53zm38.29 26.68H66V14.6a1 1 0 0 0-1-1h-5.93a1 1 0 0 0-1 1v39.49h-8.95a2.35 2.35 0 0 0-2.38 2.32.59.59 0 0 0 .59.58h21.08a.59.59 0 0 0 .6-.58 2.35 2.35 0 0 0-2.39-2.32zM55.2 32a1.56 1.56 0 0 0 1.58 1.55.65.65 0 0 0 .66-.64v-8.78a.65.65 0 0 0-.65-.64A1.56 1.56 0 0 0 55.2 25v2.41H40.73a.54.54 0 0 0-.54.53 1.68 1.68 0 0 0 1.7 1.66H55.2V32z"/>
        </g>
    </g>
</symbol><symbol id="icon-accordion2" viewBox="0 0 73.98 72.98">
    
    <title>
        accordion-ic2
    </title>
    <g id="Layer_2" data-name="Layer 2">
        <g id="Layer_1-2" data-name="Layer 1">
            <path id="Form_5_Kopie" data-name="Form 5 Kopie" class="cls-1" d="M30.37 2.2h7.16a.46.46 0 0 0 .47-.45v-.36A1.39 1.39 0 0 0 36.61 0h-5.32a1.39 1.39 0 0 0-1.39 1.39v.35a.46.46 0 0 0 .45.46zm32.37 44.57v-15a1.11 1.11 0 0 0-1.11-1.11H38a.19.19 0 0 0-.19.18v3.68a.44.44 0 0 1-.43.44h-.61a.44.44 0 0 1-.44-.43v-3.72a.19.19 0 0 0-.18-.19h-4.96a.19.19 0 0 0-.19.19v3.68a.44.44 0 0 1-.43.44H30a.44.44 0 0 1-.44-.43v-3.69a.19.19 0 0 0-.18-.19H5.89a1.11 1.11 0 0 0-1.11 1.11v15a3.29 3.29 0 0 0 3.29 3.29h51.38a3.29 3.29 0 0 0 3.29-3.29zM7 39.7a.65.65 0 0 1 .65-.65h52.19a.65.65 0 0 1 .65.65v.81a.65.65 0 0 1-.65.65H7.68a.65.65 0 0 1-.68-.65v-.81zm.65 5.58a.65.65 0 0 1-.65-.65v-.81a.65.65 0 0 1 .65-.65h52.19a.65.65 0 0 1 .65.65v.81a.65.65 0 0 1-.65.65H7.68zm5.39-16.39l-1.95-1.67-.79-.65a.18.18 0 0 0-.29.11 4.57 4.57 0 0 0 .77 3.21h9.67l-1.56-1.31a4.56 4.56 0 0 0-5.75-5.64.18.18 0 0 0-.06.31l.37.31 1 .86.13.1.06.06 1.2 1-.34 2.57zm10.54-7l-2.25-4.05a.18.18 0 0 0-.22-.08l-1.82.71a.17.17 0 0 0-.11.2l1.07 4.51a1 1 0 0 0 .33.52 5 5 0 0 1 1.57 2.12l1.59 4.08h2.09L24 25.11a5.08 5.08 0 0 1-.28-2.63.91.91 0 0 0-.11-.6zm4.11 2.74l-1.31 2.49-.54 2.78h2.47l.6-1.15a1.59 1.59 0 0 1 1.47-2.8l3-5.73-1.06-.56zm7.37 5.27h19.32l.25-.16a7.82 7.82 0 0 0 3.51-6.68.3.3 0 0 0-.47-.24l-5.13 3.38a1.78 1.78 0 0 1-2.1-.11 8.07 8.07 0 0 1-1.71-1.89 8.15 8.15 0 0 1-1-2.25 1.78 1.78 0 0 1 .73-2l5.14-3.39a.3.3 0 0 0 0-.52 7.83 7.83 0 0 0-10.92 8.48l-8.1 5.34h.59zm-4.44-3.82a1.59 1.59 0 0 1-1.47 2.8l-.54 1H32l1.23-2.35 1.46-6.64-1.06-.56zm.08 1.83a1.11 1.11 0 0 0-.35-1.43l-.07-.05h-.08a1.11 1.11 0 0 0-1.1 1.9h1.26a1.12 1.12 0 0 0 .34-.39zm21.53-2.11l.63-.41h-2.51l.39.34a1.3 1.3 0 0 0 1.53.06zm-18.49 1.91l-.3.58h2.63l4.41-2.91h-6.23zm-26.46.58h2.34a5.06 5.06 0 0 1-.05-1.67.65.65 0 0 1 .42-.53.64.64 0 0 1 .66.11l.79.65 1.68 1.44h.28l1.72-.51.26-2-.47-.4H7.28a1.22 1.22 0 0 1-1.22-1.22V7.07a1.22 1.22 0 0 1 1.22-1.22h53.34a1.22 1.22 0 0 1 1.22 1.22v17.09a1.22 1.22 0 0 1-1.22 1.22h-2.28a8.36 8.36 0 0 1-1.45 2.91h3.72a4.13 4.13 0 0 0 4.13-4.13V7.07a4.13 4.13 0 0 0-4.12-4.13H7.28a4.13 4.13 0 0 0-4.12 4.13v17.09a4.13 4.13 0 0 0 4.12 4.13zm18.43-.12l.29-1.22.83-1.57h-2.2zm-3.09.12L21.73 26a4.19 4.19 0 0 0-.3-.61h-2.21a5 5 0 0 1 .28 2.91h3.13zM50.1 54.68l-25.47 2.25a4.8 4.8 0 0 1-2.53-.45.92.92 0 0 0-.59-.06l-4.39 1a.17.17 0 0 0-.13.18l.17 1.89a.18.18 0 0 0 .17.16l4.5.22a.9.9 0 0 0 .57-.17 5 5 0 0 1 2.41-.89l25.47-2.25a.36.36 0 0 0 .33-.39L50.5 55a.36.36 0 0 0-.39-.33zm23.84-1.06a14.14 14.14 0 0 0-.75-3.53.84.84 0 0 0-.88-.57L57.77 50.8a.83.83 0 0 0-.58.31 3 3 0 0 1-4.25.38.87.87 0 0 0-.62-.19l-.93.08a.85.85 0 0 0-.77.91l.58 6.54a.86.86 0 0 0 .92.78l.93-.09a.86.86 0 0 0 .58-.3 3 3 0 0 1 4.26-.38.83.83 0 0 0 .62.2L73 57.75a.84.84 0 0 0 .8-.75 14.17 14.17 0 0 0 .14-3.42zM2.68 56.39v-.11-.3a1.65 1.65 0 0 1 .05-.3 1 1 0 0 1 0-.14l.06-.13a1.27 1.27 0 0 1 .38-.41 1.89 1.89 0 0 1 .3-.19l.12-.05-.11.07a1 1 0 0 0-.26.22l-.14.17a1.75 1.75 0 0 0-.11.22.92.92 0 0 0 0 .13.85.85 0 0 0 0 .13 1.24 1.24 0 0 0 0 .26v.28c0 .09 0 .17.05.26H3l.64.27v-.18-.29a1.34 1.34 0 0 1 0-.3v-.15a1.13 1.13 0 0 1 .06-.13 1.54 1.54 0 0 1 .33-.39 1.27 1.27 0 0 1 .3-.18l.12-.06-.11.07a1.84 1.84 0 0 0-.26.22 1.13 1.13 0 0 0-.14.18 1.08 1.08 0 0 0-.11.22v.25a1.43 1.43 0 0 0 0 .27v.27a2 2 0 0 0 .05.26v.07l.63.27v-.15a1.22 1.22 0 0 0 0-.16 1.22 1.22 0 0 1 0-.16 2 2 0 0 1 0-.35 1.48 1.48 0 0 1 .11-.33v-.07l.1-.13a1.18 1.18 0 0 1 .23-.21l.23-.14.37-.14h.15l-.14.05a1.58 1.58 0 0 0-.35.18 2.48 2.48 0 0 0-.2.15 1.75 1.75 0 0 0-.18.22l.06.07v.07a1.11 1.11 0 0 0-.06.29 1.71 1.71 0 0 0 0 .31v.3a2 2 0 0 0 .07.26v.07l3.32 1.42a5.71 5.71 0 0 1 .43-1.44 6.61 6.61 0 0 1 .5-.9l-2.44-1h-.15l-.15.05-.15.06-.15.07a1.58 1.58 0 0 0-.29.16 1.27 1.27 0 0 0-.24.21l-.1.11-.08.13a1.35 1.35 0 0 0-.12.24 1.74 1.74 0 0 0-.1.4v.16a1.41 1.41 0 0 1 0-.16 1.75 1.75 0 0 1 .05-.42 1.67 1.67 0 0 1 .1-.27l.03-.12.09-.14a1.73 1.73 0 0 1 .24-.25 1.92 1.92 0 0 1 .31-.18l.15-.1.16-.08-.71-.3h-.17l-.28.11-.27.14a1.18 1.18 0 0 0-.23.19 1.37 1.37 0 0 0-.18.23 1.63 1.63 0 0 0-.12.25 1.92 1.92 0 0 0-.11.63v0a1.87 1.87 0 0 1 0-.39 2.35 2.35 0 0 1 0-.27 1.92 1.92 0 0 1 .1-.28 2.08 2.08 0 0 1 .17-.28 2 2 0 0 1 .24-.25 1.82 1.82 0 0 1 .28-.19l.17-.1-.35-.15-.22.05-.25.07-.26.11-.18.18-.1.09-.09.09a1.48 1.48 0 0 0-.14.21 1.17 1.17 0 0 0-.09.21 1.42 1.42 0 0 0-.07.33.68.68 0 0 0 0 .13 1.05 1.05 0 0 1 0-.13 1.56 1.56 0 0 1 0-.35 1.37 1.37 0 0 1 .18-.48l.1-.1.1-.11a1.31 1.31 0 0 1 .24-.19l.26-.15.15-.08-.48-.22-.36.06-.25.08-.26.11a1 1 0 0 0-.23.13l-.1.09-.09.09a1 1 0 0 0-.14.2 1.42 1.42 0 0 0-.15.55.74.74 0 0 0 0 .13v-.13a1.4 1.4 0 0 1 0-.35 1.3 1.3 0 0 1 .18-.48l.08-.12.1-.11a2 2 0 0 1 .24-.19l.26-.15.22-.1a1.23 1.23 0 0 0-1.38.6v.07a1.4 1.4 0 0 0-.08.2 1.24 1.24 0 0 0 .61 1.46zM13 59.85a3.27 3.27 0 0 1-.22.5 2.87 2.87 0 0 0 .43-.69c.75-1.67-.05-3.95-1.05-4.39s-2.41.54-3.15 2.2-.54 3.38.45 3.83a3.08 3.08 0 0 0 3-.6l.09-.17a1.85 1.85 0 0 0 .1-.23 2.82 2.82 0 0 0 .17-.51 2.27 2.27 0 0 0 .06-.56 1.81 1.81 0 0 0-.1-.55 2.91 2.91 0 0 0-.23-.53c-.09-.17-.19-.34-.29-.5s-.21-.3-.31-.44l-.29-.4c-.27-.35-.31-.44-.45-.58l-.21-.16a.11.11 0 0 1 0-.16l.14-.11a1.48 1.48 0 0 1 .32-.15.11.11 0 0 1 .14 0l.1.16.39.64.26.44c.09.16.18.32.27.5s.18.36.26.55a3.57 3.57 0 0 1 .19.62v.49a.89.89 0 0 1 0 .16 2.54 2.54 0 0 1-.11.61zm31.74-.23a9.5 9.5 0 0 0-4-.84.43.43 0 0 0-.34.06.49.49 0 0 0-.19.29l-.91 4.35a.6.6 0 0 0 .05.4l.75 1.44a.6.6 0 0 1 .05.4l-.23 1.08a.17.17 0 0 0 .08.2 6.73 6.73 0 0 1 1.07.15 7.51 7.51 0 0 1 1 .28.19.19 0 0 0 .13 0 .16.16 0 0 0 .07-.1l.23-1.09a.55.55 0 0 1 .21-.34l1.26-1a.61.61 0 0 0 .21-.35l.91-4.35a.45.45 0 0 0-.35-.53zM42 67.57a7 7 0 0 0-.91-.27 7.52 7.52 0 0 0-1-.14.17.17 0 0 0-.2.13l-.09.44a3.67 3.67 0 0 1-4.33 2.85L1 63.39a.62.62 0 0 0-.7.4 3.9 3.9 0 0 0-.18.63A4.22 4.22 0 0 0 0 65a.61.61 0 0 0 .49.63l34.44 7.18A6 6 0 0 0 42 68.22l.09-.45a.15.15 0 0 0 0-.12.15.15 0 0 0-.11-.07z"/>
        </g>
    </g>
</symbol><symbol id="icon-accordion3" viewBox="0 0 65 45">
    
    <title>
        accordion-ic3
    </title>
    <g id="Layer_2" data-name="Layer 2">
        <g id="Layer_1-2" data-name="Layer 1">
            <path id="Form_6" data-name="Form 6" class="cls-1" d="M16.79 22.3l-1.2 1.19a.75.75 0 0 0 0 1.06.77.77 0 0 0 1.08 0l1.2-1.18a.77.77 0 0 0-1.09-1.08zm2.45 2.26l1.2-1.18a.77.77 0 0 0-1.08-1.08l-1.2 1.19a.75.75 0 0 0 0 1.06.77.77 0 0 0 1.08 0zm2.56 0l1.2-1.18a.77.77 0 0 0-1.1-1.08l-1.2 1.19a.75.75 0 0 0 0 1.06.77.77 0 0 0 1.08 0zm2.56 0l1.2-1.18a.77.77 0 0 0-1.08-1.08l-1.2 1.19a.75.75 0 0 0 0 1.06.77.77 0 0 0 1.08 0zm2.56 0l1.2-1.18A.77.77 0 0 0 27 22.3l-1.2 1.19a.75.75 0 0 0 0 1.06.77.77 0 0 0 1.08 0zm2.56 0l1.2-1.18a.77.77 0 0 0-1.08-1.08l-1.2 1.19a.75.75 0 0 0 0 1.06.77.77 0 0 0 1.08 0zm2.55 0l1.2-1.18a.77.77 0 0 0-1.08-1.08l-1.2 1.19a.75.75 0 0 0 0 1.06.76.76 0 0 0 1.05.01zm2.44 0l1.2-1.18a.77.77 0 0 0-1.08-1.08l-1.2 1.19a.75.75 0 0 0 0 1.06.77.77 0 0 0 1.08 0zm2.56 0l1.2-1.18a.77.77 0 0 0-1.08-1.08l-1.2 1.19a.75.75 0 0 0 0 1.06.77.77 0 0 0 1.08 0zm2.56 0l1.2-1.18a.77.77 0 0 0-1.08-1.08l-1.2 1.19a.75.75 0 0 0 0 1.06.76.76 0 0 0 1.06.01zm2.56 0l1.2-1.18a.77.77 0 0 0-1.08-1.08L41 23.49a.75.75 0 0 0 0 1.06.76.76 0 0 0 1.12.01zm2.56 0l1.2-1.18a.77.77 0 0 0-1.08-1.08l-1.2 1.19a.75.75 0 0 0 0 1.06.77.77 0 0 0 1.05.01zm2.55 0l1.2-1.18a.77.77 0 0 0-1.08-1.08l-1.2 1.19a.75.75 0 0 0 0 1.06.77.77 0 0 0 1.08 0zm2.56 0L51 23.38a.77.77 0 0 0-1.1-1.08l-1.2 1.19a.75.75 0 0 0 0 1.06.77.77 0 0 0 1.08 0zm2.15 18.06H13A1.19 1.19 0 0 0 13 45h38.94c1.34 0 2.42.15 2.42-1.19a2.42 2.42 0 0 0-2.42-2.42zM6.78 21.83a1.62 1.62 0 0 1 1.36.75h4.26l20.1-10.15 20.1 10.15h4.67a1.62 1.62 0 0 1 2.73 0h5L38.23 9.06V5.4a2.15 2.15 0 0 0-2.16-2.14h-7.14a2.15 2.15 0 0 0-2.16 2.14v3.66L0 22.58h5.41a1.61 1.61 0 0 1 1.37-.75zM32.5 7.59a1.6 1.6 0 1 1-1.61 1.6 1.6 1.6 0 0 1 1.61-1.6zM58.62 25a1.61 1.61 0 0 1-1.56-1.18h-4.2L32.5 35.33 12.14 23.85h-3.8a1.61 1.61 0 0 1-3.11 0H0l26 14.34h-4.43a2.49 2.49 0 0 0-2.51 2.48v.7a.92.92 0 0 0 .92.91H45a.92.92 0 0 0 .92-.91v-.7a2.49 2.49 0 0 0-2.5-2.48H39l26-14.34h-4.82A1.61 1.61 0 0 1 58.62 25zM32.5 40.48a1.6 1.6 0 1 1 1.61-1.6 1.6 1.6 0 0 1-1.61 1.6zM23.4 2.42h18.2a.93.93 0 0 0 .94-.92V.93A.94.94 0 0 0 41.6 0h-1.68a.25.25 0 0 0-.25.25v.11a.25.25 0 0 1-.25.25h-.64a.25.25 0 0 1-.25-.25V.25A.25.25 0 0 0 38.3 0h-1.69a.25.25 0 0 0-.25.25v.11a.25.25 0 0 1-.25.25h-.64a.25.25 0 0 1-.25-.25V.25A.25.25 0 0 0 35 0h-1.69a.25.25 0 0 0-.25.25v.11a.25.25 0 0 1-.25.25h-.64a.25.25 0 0 1-.25-.25V.25a.25.25 0 0 0-.23-.25H30a.25.25 0 0 0-.25.25v.11a.25.25 0 0 1-.25.25h-.64a.25.25 0 0 1-.25-.25V.25a.25.25 0 0 0-.23-.25H26.7a.25.25 0 0 0-.25.25v.11a.25.25 0 0 1-.25.25h-.64a.25.25 0 0 1-.25-.25V.25a.25.25 0 0 0-.23-.25H23.4a.94.94 0 0 0-.94.93v.56a.93.93 0 0 0 .93.93z"/>
        </g>
    </g>
</symbol><symbol id="icon-accordion4" viewBox="0 0 80.94 47.08">
    
    <title>
        accordion-ic4
    </title>
    <g id="Layer_2" data-name="Layer 2">
        <g id="Layer_1-2" data-name="Layer 1">
            <path id="Form_7" data-name="Form 7" class="cls-1" d="M24.73 31.25l-.4-.86-.22-.48-.4-.87a.14.14 0 0 0-.17-.06l-.94.1a.92.92 0 0 0-.77 1.22v.06l.68 1.49v.06a.9.9 0 0 0 1.49.19l.68-.67a.14.14 0 0 0 .05-.18zm8.27-9.6l-3-1.08-1.5 4.17 4-1.89zm0-.23a2.5 2.5 0 0 0 2-.08 2.3 2.3 0 0 0 .6-.4 4.28 4.28 0 0 0 1.16-1.75L41.79 5l.39.14a.28.28 0 0 0 .22 0 .3.3 0 0 0 .15-.14l.14-.4a.29.29 0 0 0-.17-.38L42.13 4l-8-3-.4-.08a.34.34 0 0 0-.22 0 .31.31 0 0 0-.15.17l-.14.4a.3.3 0 0 0 .17.38l.39.14-5.09 14.22a4.35 4.35 0 0 0-.21 2.09 2.6 2.6 0 0 0 1.68 2.07zm-3.39-3.25a3.2 3.2 0 0 1 .16-1.56l5.01-14.13 6 2.2-5.09 14.13a3.12 3.12 0 0 1-.86 1.3 1.23 1.23 0 0 1-.34.23 1.5 1.5 0 0 1-1.16.05l-2.79-1a1.49 1.49 0 0 1-1-1.18zm12-14.56a.27.27 0 0 0 .39-.14v-.13a.94.94 0 0 0-.54-1.19L35.84.05a.91.91 0 0 0-1.16.55v.14a.27.27 0 0 0 .16.35zm22.55 24.72l-2.63 2.83a.12.12 0 0 0 0 .18l1.23.77a.77.77 0 0 0 .95-.13l.62-.66.11-.11.62-.66a.78.78 0 0 0 .08-1l-.82-1.25a.12.12 0 0 0-.17 0zm.45 3.25l.11-.11.42-.42c.82.95 3.36 3.36 5.38 2.75 2.47-.76 4.1-4.49 4.42-5.25a13.23 13.23 0 0 0 .72-6.55c-.13-1.69-.23-3 .84-3.61s2.29 0 4.21 1.67a.7.7 0 0 1 .06 1 .67.67 0 0 1-.95.06c-2.05-1.79-2.65-1.5-2.67-1.49-.28.15-.19 1.33-.12 2.27a14.63 14.63 0 0 1-.84 7.22 11.67 11.67 0 0 1-1.88 3.46 7.31 7.31 0 0 1-3.4 2.56C68 36 65 33 64.17 32zm-7.9-19.39l-.71.31a.43.43 0 0 0-.2.57l.41.9a.18.18 0 0 1-.09.24l-.68.32a.18.18 0 0 0-.09.24l.45 1a.17.17 0 0 0 .23.09l.68-.32a.18.18 0 0 1 .24.09l.41.9a.41.41 0 0 0 .54.22l.67-.32a.42.42 0 0 0 .2-.56l-1.58-3.44a.41.41 0 0 0-.55-.2zm-12 16.09a.72.72 0 0 0 .33.93.7.7 0 0 0 .58 0 .67.67 0 0 0 .34-.36 6 6 0 0 0-.04-4.85l-.41-.89a.47.47 0 0 0 .06-.48l-.13-.29a.2.2 0 0 0-.26-.1l-1.44.69a.19.19 0 0 0-.1.25l.13.29a.44.44 0 0 0 .52.25l.39.85a4.65 4.65 0 0 1 .05 3.74zm-6.67-8.93a.33.33 0 0 0-.16.44l.5 1.1a.33.33 0 0 0 .43.16l6.29-3a.33.33 0 0 0 .16-.43l-.5-1.1a.33.33 0 0 0-.44-.16zM18.88 32l-1.55.73a.52.52 0 0 0-.25.69.51.51 0 0 0 .67.27l1.55-.74a.52.52 0 0 0 .25-.69.5.5 0 0 0-.66-.26zM8.61 36.87L5.7 38.25a.52.52 0 0 0 .43 1L9 37.82a.54.54 0 0 0 .25-.7.51.51 0 0 0-.68-.25zm5.82-2.76l-2.91 1.38a.52.52 0 0 0-.25.69.51.51 0 0 0 .67.27l2.91-1.38a.53.53 0 0 0 .25-.7.51.51 0 0 0-.68-.25zM2.78 39.63l-1.55.73a.54.54 0 0 0-.25.7.51.51 0 0 0 .68.25l1.55-.73a.54.54 0 0 0 .25-.7.51.51 0 0 0-.68-.25zm15.35-10.2l-1.68.3a.52.52 0 0 0 .18 1l1.68-.3a.3.3 0 0 0 .13 0 .52.52 0 0 0-.3-1zm-10 2.82a.53.53 0 0 0 .29-.57.51.51 0 0 0-.59-.42L5 31.77a.52.52 0 0 0 .18 1L8 32.29h.13zm6-1.59a.51.51 0 0 0-.59-.42l-2.87.51a.52.52 0 0 0-.42.6.51.51 0 0 0 .58.43l2.87-.51.13-.05a.51.51 0 0 0 .29-.56zM.6 33.6l1.68-.3a.51.51 0 0 0 .42-.59.51.51 0 0 0-.59-.42l-1.69.3a.52.52 0 0 0-.42.6.51.51 0 0 0 .58.43zm19.51.78L18.8 35.5a.53.53 0 0 0-.06.74.51.51 0 0 0 .61.13.3.3 0 0 0 .11-.07l1.31-1.12a.52.52 0 0 0 .06-.73.51.51 0 0 0-.72-.07zm-3.54 3l-2.23 1.9a.53.53 0 0 0-.06.74.53.53 0 0 0 .61.14l.11-.08 2.23-1.9a.53.53 0 0 0 .06-.74.5.5 0 0 0-.7-.08zm-4.46 3.81L9.9 43.12a.53.53 0 0 0-.06.74.51.51 0 0 0 .61.14l.11-.08L12.78 42a.53.53 0 0 0 .06-.74.5.5 0 0 0-.7-.07zM7.67 45l-1.31 1.15a.53.53 0 0 0-.06.74.51.51 0 0 0 .61.13L7 47l1.31-1.12a.53.53 0 0 0 .06-.74.5.5 0 0 0-.7-.08zm25.69-25.23a1.31 1.31 0 0 0 1 0 1.16 1.16 0 0 0 .3-.19 2.89 2.89 0 0 0 .76-1.14l2.66-7.34c.1-.28-.44-.29-.44-.29l-5.25.16a1.77 1.77 0 0 0-.39.62l-1.8 4.92a2.8 2.8 0 0 0-.14 1.36 1.32 1.32 0 0 0 .85 1zm26 3.32a1.32 1.32 0 0 0-1.11.2l-4 2.9a1.38 1.38 0 0 0-.49 1.58 1.87 1.87 0 0 0 1.12 1.14l.27.11a1.35 1.35 0 0 0 1.36-.26l3.5-3.16a1.39 1.39 0 0 0 .42-1.35v-.16a1.35 1.35 0 0 0-1.09-1zm1 3.08L57 29a1.1 1.1 0 0 0-.22 1.42 2.14 2.14 0 0 0 1.5 1h.07a1.05 1.05 0 0 0 1-.38l2.52-3.11a1.09 1.09 0 0 0 .24-.83v-.21a1.07 1.07 0 0 0-1.75-.7zm-6.94.09l3.78-2.62a4.5 4.5 0 0 0 .49-1.7 1.26 1.26 0 0 0-1-1.35c-.93-.38-3.06 1.09-3.06 1.09l-2.19 1.58a1.79 1.79 0 0 0-.74 1.8v.05a1.79 1.79 0 0 0 .85 1.22 1.74 1.74 0 0 0 1.86-.07zM60.69 24v.16a1.79 1.79 0 0 1-.31 1.49 1.4 1.4 0 0 1 .64-.12 1.47 1.47 0 0 1 1.38 1.29v.21a1.49 1.49 0 0 1-.32 1.13L59.86 31l.43.41a.53.53 0 0 0 .75 0L64.19 28a.56.56 0 0 0 0-.78l-3.54-3.4a2 2 0 0 1 .06.19zm-2.91-.87L58 23a1.72 1.72 0 0 1 1.42-.27h.07l-1.62-1.56a2 2 0 0 1 .14.77 3.73 3.73 0 0 1-.24 1.19zm-4.17-9.89L45.67 17a.28.28 0 0 0-.13.37l.16.34a.27.27 0 0 1-.13.36l-6.94 3.29a.26.26 0 0 1-.35-.11l-.16-.34a.26.26 0 0 0-.35-.14l-13.6 6.45a1 1 0 0 0-.49 1.35l1.39 3a1 1 0 0 0 1.33.5l13.47-6.39a.43.43 0 0 0 .2-.57l-.13-.28a.42.42 0 0 1 .2-.56l5-2.36a.42.42 0 0 1 .56.21l.13.28a.42.42 0 0 0 .55.2l3.25-1.54 1.77 1.71 2-1.44c.39-.27 2.36-1.57 3.42-1.14l.23.1-1.91-1.84.75-.36a.86.86 0 0 0 .36-1.09l-1.52-3.32a.84.84 0 0 0-1.11-.42zm18.21 4.1a9.8 9.8 0 0 1-7-.43l-2.59-1.18a9.9 9.9 0 0 0-3.4-.86l.36.79a.84.84 0 0 1-.16.93.87.87 0 0 1-.23.16l-.67.32a.81.81 0 0 1-1.07-.4l-.32-.67-.43.2.3.66a1.54 1.54 0 0 1-.07 1.14 3.86 3.86 0 0 1-.89.6c.26.28 1.35 1.27 1.85 1.76.17-.34.29-1.8.51-2.16a3.52 3.52 0 0 1 1.45-1.23 3.83 3.83 0 0 0-.82.86A4 4 0 0 0 58 19.3a4.74 4.74 0 0 0 0 1.42l6.46 6.22a1 1 0 0 1 0 1.33l-2.05 2.23.46-.13a35 35 0 0 0 3.58-1.2 7.33 7.33 0 0 0 1.61-.8 3.52 3.52 0 0 1 2.51-.9l2.39.1a8.94 8.94 0 0 0 .55-7l-1.14-3.37zm-27.5 7.37L44 24.1a.83.83 0 0 1-.62-.48l-.07-.16c-.78.51-1.44.91-1.95 1.22a2.87 2.87 0 0 0-.54.59c-1.07 1.37-.2 2.14 1 2.05A18.41 18.41 0 0 0 44.68 26a4.31 4.31 0 0 0-.36-1.27zm5.18-3.15l-3 1.43a.73.73 0 0 1-.5.01l.32.71a6.16 6.16 0 0 1 .4 1.16c.54-.26 1-.43 1.17-.52a24.71 24.71 0 0 0 3-1.56zm6.8-5.4l.22.48.44-.17-.23-.47zM53 13.09l-.29-.15-.35-.21c-1.55-.9-2.56-1.49-3-1.17a1 1 0 0 0-.2.87 3.32 3.32 0 0 0 1 2z"/>
        </g>
    </g>
</symbol><symbol id="icon-accordion5" viewBox="0 0 38 42.01">
    
    <title>
        accordion-ic5
    </title>
    <g id="Layer_2" data-name="Layer 2">
        <g id="Layer_1-2" data-name="Layer 1">
            <path id="Form_8" data-name="Form 8" class="cls-1" d="M29.12 8.75a.38.38 0 0 0-.37-.31h-.51A9.39 9.39 0 0 0 19 0a9.64 9.64 0 0 0-7 3.09.47.47 0 0 0 0 .65.46.46 0 0 0 .64 0 8.52 8.52 0 0 1 14.78 6.07.41.41 0 0 0 0 .17v1.3a8.9 8.9 0 0 1-2.74 2.07 10.83 10.83 0 0 1-4.22 1.14A.47.47 0 0 0 20 14h-2a.47.47 0 0 0-.47.48v.67a.47.47 0 0 0 .47.47h2a.47.47 0 0 0 .46-.39A11.43 11.43 0 0 0 25 14a9.34 9.34 0 0 0 2.48-1.73.37.37 0 0 0 .34.21h.91a.38.38 0 0 0 .37-.3 8.44 8.44 0 0 0 .17-1.65 8.35 8.35 0 0 0-.15-1.78zm-3.81 5.87a11.78 11.78 0 0 1-4.39 1.25 1.14 1.14 0 0 1-.9.43H18a1.18 1.18 0 0 1-1.17-1.18v-.67A1.18 1.18 0 0 1 18 13.26h2a1.16 1.16 0 0 1 .93.48 10.28 10.28 0 0 0 3.45-1A8.05 8.05 0 0 0 26.75 11v-.91a1.17 1.17 0 0 1 0-.28 8.22 8.22 0 0 0-3.53-6.9A7.83 7.83 0 0 0 19 1.7a8.11 8.11 0 0 0 0 16.21 7.94 7.94 0 0 0 6.49-3.38zM10.09 38.53h17.82a5.67 5.67 0 0 0 10.09.79.23.23 0 0 0-.18-.35h-4.53a1.3 1.3 0 0 1-1.24-.92 6.07 6.07 0 0 1-.28-1.86 6.17 6.17 0 0 1 .28-1.81 1.3 1.3 0 0 1 1.23-.91h4.49a.23.23 0 0 0 .18-.35 5.67 5.67 0 0 0-10.05.79H10.09A5.67 5.67 0 0 0 0 33.12a.23.23 0 0 0 .18.35h4.53a1.3 1.3 0 0 1 1.23.91 6.09 6.09 0 0 1 0 3.67 1.3 1.3 0 0 1-1.23.95H.22a.23.23 0 0 0-.18.35 5.67 5.67 0 0 0 10.05-.79zm-5.18-8.8a6.39 6.39 0 0 1 5.62 3.48h16.94a6.39 6.39 0 0 1 5.62-3.48 5.1 5.1 0 0 1 .88.05v-3.67a.72.72 0 0 0-.15-.44 19.56 19.56 0 0 0-29.62 0 .72.72 0 0 0-.15.44v3.67a5.1 5.1 0 0 1 .88-.05z"/>
        </g>
    </g>
</symbol><symbol id="icon-accordion6" viewBox="0 0 62.01 33.96">
    
    <title>
        accordion-ic6
    </title>
    <g id="Layer_2" data-name="Layer 2">
        <g id="Layer_1-2" data-name="Layer 1">
            <path id="Form_9" data-name="Form 9" class="cls-1" d="M37.81 12.78l.07-.13H38a.3.3 0 0 0 .29-.17.31.31 0 0 0-.1-.39l-.13-.09.06-.14a.17.17 0 0 0 0-.1.65.65 0 0 1-.09-.17.64.64 0 0 1-.36-.1l-.1.19a.23.23 0 0 1-.07.08l-.15.09a1.88 1.88 0 0 0-.45.39 2.84 2.84 0 0 0-.2.3l-.17.35a2.11 2.11 0 0 0-.22 1.06v.49l-.25.82a.73.73 0 0 0 0 .33.17.17 0 0 0 .12.13h.23l.14-.24v-.11h.13a.35.35 0 0 0 .29-.57l-.08-.1.08-.07zm-6.18-1.95a.51.51 0 0 0 .23.69l.46-.92a.52.52 0 0 0-.7.23zm4.47 10.29v-.31a2.55 2.55 0 0 0-1.61-2.08 2.51 2.51 0 0 0-2.12.14l-8.24 4.45a2.56 2.56 0 0 0-1.27 2.81 3.52 3.52 0 0 0 1.85 2.37l.49.25a2.53 2.53 0 0 0 2.61-.18L35 23.51a2.55 2.55 0 0 0 1.07-2.39zm2.63 5.6v-.39a2 2 0 0 0-1.7-2 2 2 0 0 0-1.44.3l-6.84 4.46A2 2 0 0 0 28 31.7a4 4 0 0 0 2.6 2.16h.13a2 2 0 0 0 1.93-.49l5.41-5.19a2 2 0 0 0 .63-1.49zm-19-10.36l4.07-2.07 4-2.09a3.19 3.19 0 0 0 .95-.76 2.38 2.38 0 0 0 0-3.12l-.16-.18a2.18 2.18 0 0 0-1.54-.73 15.23 15.23 0 0 0-4.2.39 2.28 2.28 0 0 0-.78.36l-.76.53-5 2.22c-.89.38-1.51.79-1.51 1.76l.05.58a4.38 4.38 0 0 0 .17 1 3.34 3.34 0 0 0 2.42 2.35 3.39 3.39 0 0 0 2.32-.27zm12-.29c.15-1.39-.29-2.07-1.62-2.78-1.7-.91-6.1 1.39-6.1 1.39l-4.55 2.49a3.38 3.38 0 0 0-1.81 3.23v.1a3.39 3.39 0 0 0 4.95 2.78l7.82-4.11a8.48 8.48 0 0 0 1.32-3.1zm0 2.33c.26 0 1.1-.24 1.85-.41l-1.42-.57a9.93 9.93 0 0 1-.43 1zm-8-11.87l-.2.22 1.41-.17c.81 0 1 .06 2.19.12a2.89 2.89 0 0 1 1.53.52l.11-.22a3.46 3.46 0 0 0-.32-.46 3.38 3.38 0 0 0-4.77 0zm18.6 12.21l.46-.92 1.09-2.17.46-.92a2.06 2.06 0 0 0-.75-2.68l-11.07-6.9-.1-.06c-.44-.22-1.09.06-1.79.7a10.11 10.11 0 0 0-1.56 1.91l.16.18a3 3 0 0 1 .55.89 8.22 8.22 0 0 1 1.61-1.89c.14-.13.29-.24.44-.35s.92.2.78.49l-1 2-.66 1.31a5.1 5.1 0 0 1-.84 1.67l-.27.53a2.66 2.66 0 0 1 .59.21 3.07 3.07 0 0 1 2 3.42 4.65 4.65 0 0 1-.12.64l7.47 2.95a2 2 0 0 0 2.55-1.01zm-5.45-7.16l.08-.65a.13.13 0 0 1 .13-.11.13.13 0 0 1 .11.14l-.06.47-.21.15a.13.13 0 0 1-.05 0zm-3.76 1.1L31.8 12a.18.18 0 0 1-.1-.21.83.83 0 1 1 .7-1.52h.05a.18.18 0 0 1 .23-.05l1.31.66a.19.19 0 0 1 .08.25l-.72 1.42a.18.18 0 0 1-.24.08zm2.2-1.07l-.14.29-.29.58c-.1.2-.2.39-.3.58l-.15.28-.15.27c-.19.36-.38.69-.54 1l-.23.39-.18.29-.12.19v.07-.08c0-.05 0-.12.08-.2s.08-.2.13-.32l.17-.41c.13-.3.29-.65.46-1l.13-.28.14-.29.29-.58.3-.58.15-.28.15-.27c.19-.36.38-.7.54-1l.24-.41.18-.3a1.81 1.81 0 0 1 .12-.18V9.3v.07l-.08.21-.13.32-.17.41c-.13.3-.29.65-.46 1l-.13.28zm1.36 4l-.16.27a.2.2 0 0 1-.14.1.23.23 0 0 1-.16 0h-.17a.42.42 0 0 1-.33-.35 1 1 0 0 1 0-.45l.24-.77v-.44a2.44 2.44 0 0 1 .25-1.21l.18-.35a2.49 2.49 0 0 1 .21-.41 1.88 1.88 0 0 1 .52-.45l.13-.08.09-.17a.43.43 0 0 1 .18-.19.19.19 0 0 1 .2 0 .35.35 0 0 0 .24.09.33.33 0 0 1 .29.15v.08a.34.34 0 0 0 .05.1.46.46 0 0 1 .07.13.41.41 0 0 1 0 .26.58.58 0 0 1 .1.66.59.59 0 0 1-.45.32l-.89 1.77a.62.62 0 0 1-.48.94zm2.48-2l-.13.27-.27.55c-.09.19-.18.36-.28.54l-.14.26-.14.26c-.18.33-.36.65-.51.91l-.21.36-.17.27-.11.18v.06-.07l.07-.19.12-.3.16-.39c.12-.28.27-.61.43-.95l.12-.27.13-.27.27-.54c.09-.18.18-.37.28-.54l.14-.27.14-.26.51-.91.21-.36.17-.27.05-.18v-.06.07l-.07.2-.12.3-.16.38c-.12.28-.27.61-.43 1l-.13.26zm.42 2.74l.54-1.08a.83.83 0 0 1 .75-1.49.15.15 0 0 1 .07.2.16.16 0 0 1-.21.07.52.52 0 0 0-.69.23.51.51 0 0 0 .23.69v-.06a.18.18 0 0 1 .24-.08l1.31.66a.19.19 0 0 1 .08.25l-.72 1.42a.18.18 0 0 1-.24.08l-1.31-.66a.17.17 0 0 1-.09-.23zm-10.5-4.26a4 4 0 0 1-.42.37 5 5 0 0 1 .66 0l.14-.13a4.64 4.64 0 0 0 .45-.53v-.06A4.8 4.8 0 0 0 30.66 8a9.27 9.27 0 0 0-.72 1v.22a3 3 0 0 1-.64 2.6l-.22.23zm32.56 5.07l-1.41-6.48-1.07.2a18.81 18.81 0 0 1-13.08-2.36l-4.61-2.76A56.26 56.26 0 0 0 27.14.42l-.52-.14h-.08a10.59 10.59 0 0 0-5.19.13A11.31 11.31 0 0 0 20 .87l-1.36.59c-2.41 1-5 2.93-6.16 5.3-.39.82 0 1.6 1 2.17a5.64 5.64 0 0 0 4.24-1.38 6.47 6.47 0 0 0 1.38-2.39l.57-.28a1.44 1.44 0 0 1 1.22 0 8.25 8.25 0 0 1 1.94-1.16 5.84 5.84 0 0 1 6.83 1c.11.12.23.24.33.37l.18.2c1.2-1.11 2-1.05 2.52-.81l.17.11 11.08 6.91a2.7 2.7 0 0 1 1 3.52l-2 4a2.7 2.7 0 0 1-3.41 1.31l-3.07-1.22a3.56 3.56 0 0 1 .54 1.58V21a3.53 3.53 0 0 1-.57 2.37 2.67 2.67 0 0 1 .69 0 3 3 0 0 1 2.51 2.92v.39a2.88 2.88 0 0 1 0 .41l-6 6.46c1.8-.11 3.73-.3 5.79-.61a66 66 0 0 0 7-1.43c1-.39 2.21-.42 3.2-1.11a6.78 6.78 0 0 1 4.91-1.12l4.48.72a16.44 16.44 0 0 0 2.57-12.87zM19.15 4.92zM20 2.6l-.09.21.09-.21zm-.12.28l-.07.12.06-.14zm-.1.25v.11-.11zm-.08.22v.1-.1zm-.08.22v.08-.08zm.63-1.46L20.3 2l-.07.13zm-.25.43l.07-.14-.07.14zm.11-.22l.07-.13-.06.13zm.35-.61l.13-.2-.13.2zm-.12.19l.08-.13-.08.13zm-4.2 8.65l5-2.22.68-.67a4.75 4.75 0 0 0 .58-.43 3.9 3.9 0 0 1 .8-1.15 4 4 0 0 1 5.69 0 4.58 4.58 0 0 1 .46.68c.18-.24.37-.46.55-.67q-.36-.44-.75-.86a5.18 5.18 0 0 0-7.33 0 3.8 3.8 0 0 0-.71 1.06L21 5.85a.8.8 0 0 0-1.06-.39l-.68.32a6.16 6.16 0 0 1-1.27 2 6.12 6.12 0 0 1-4.52 1.46h-.08l-.07-.05-.32-.21a.79.79 0 0 0 0 .66l.12.26L.29 16.09a.52.52 0 0 0-.06.9l.41.27a.32.32 0 0 0 .34 0l1.1-.52.23-.65.63.23.63-.3.21-.59.58.21.69-.33.21-.58.56.21 2-.94.09-.26.25.1 1.15-.56.07-.2.2.07 1.21-.58.07-.19.19.07 2.64-1.27.12.25a.8.8 0 0 0 .73.46 2.23 2.23 0 0 1 1.65-1.37zm6.24-4.78c.13-.12.26-.24.4-.35l-.11.1a5 5 0 0 0-1 1.36l-.11-.06a4.59 4.59 0 0 1 .78-1z"/>
        </g>
    </g>
</symbol><symbol id="icon-accordion7" viewBox="0 0 50 50.01">
    
    <title>
        accordion-ic7
    </title>
    <g id="Layer_2" data-name="Layer 2">
        <g id="Layer_1-2" data-name="Layer 1">
            <path id="Form_10" data-name="Form 10" class="cls-1" d="M39.93 18.66L29.8 11.07a1.39 1.39 0 0 0-1.66 2.22l10.13 7.58a1.38 1.38 0 0 0 1.81-.13 1.38 1.38 0 0 0 0-1.95zm-4.26 4.25l-10.13-7.58a1.38 1.38 0 0 0-1.66 2.21L34 25.13a1.39 1.39 0 0 0 1.66-2.22zm-4.26 4.26l-10.13-7.58a1.38 1.38 0 0 0-1.66 2.21l10.13 7.59a1.39 1.39 0 0 0 1.66-2.22zm-4.26 4.26L17 23.85a1.38 1.38 0 0 0-1.66 2.21l10.13 7.59a1.39 1.39 0 0 0 1.66-2.22zM21.66 24l-1.47 1.47 4.92 3.69 1.47-1.48zm4.26-4.26l-1.47 1.47 4.92 3.69 1.47-1.48zm4.26-4.26L28.71 17l4.92 3.68 1.47-1.47zM22.32 32l-4.91-3.7-1.09 1.09-3-3-3.79 3.8 10.26 10.25 3.79-3.79-3-3zM7.45 34.3l-2 5.2a5.26 5.26 0 1 0 5.08 5.43v-.36l5.2-2L18.27 40 10 31.74zM7 46.51A2.48 2.48 0 1 1 7 43c3 0 5.38-1.22 5.38 1.76S10 50.14 7 46.51zm41.45-45a5.29 5.29 0 0 0-8.77 5.38 4.11 4.11 0 0 0-2 1.09l-.27.28-.91-.92a1 1 0 0 0-1.36 0l-1.37 1.41a1 1 0 0 0 0 1.36l.91.91L33 12.74l4.92 3.68 1.1-1.1.91.91a1 1 0 0 0 1.36 0l1.36-1.36a1 1 0 0 0 0-1.36l-.91-.91.28-.28a4 4 0 0 0 1.09-2 5.29 5.29 0 0 0 5.38-8.77zm-2.18 5.3a2.21 2.21 0 1 1 0-3.12c1.93 0 3.5-.37 3.5 1.56a3.5 3.5 0 0 1-3.5 3.5v-1.9z"/>
        </g>
    </g>
</symbol><symbol id="icon-accordion8" viewBox="0 0 51.01 49">
    
    <title>
        accordion-ic8
    </title>
    <g id="Layer_2" data-name="Layer 2">
        <g id="Layer_1-2" data-name="Layer 1">
            <path id="Form_11" data-name="Form 11" class="cls-1" d="M14.08 36.58c0-.21 0-.42.07-.62v-.11c0-.18 0-.35.08-.51a3 3 0 0 1 .14-.52.66.66 0 0 1 .3-.09 2.3 2.3 0 0 1 .55 0h.23l.57.08a2.57 2.57 0 0 0 .55 0 1.51 1.51 0 0 0 .68-.24l.08-.06.09-.08a.38.38 0 0 0 .11-.15.33.33 0 0 1-.07.12 1.57 1.57 0 0 0 .2-.27 1.69 1.69 0 0 0 .22-.92 3.7 3.7 0 0 0-.22-.86 3.62 3.62 0 0 0-.41-.78 2.8 2.8 0 0 0-.28-.36 2.4 2.4 0 0 0-.34-.32l-.17-.11-.08-.05h-.09a1.79 1.79 0 0 0-.49-.16 2.29 2.29 0 0 0-1 .05l-.64.19h-.11c-.28.09-.49.14-.69.19a5.34 5.34 0 0 1-1.33.1h-.64a4.78 4.78 0 0 1-.63-.13 2.38 2.38 0 0 1-.9-.38v-.4a1.32 1.32 0 0 0 .54-1.05v-3a1 1 0 0 0-.79-1.05l.08-2a.73.73 0 0 0-1 0l-.13 1.92a1.19 1.19 0 0 0-.92 1.13v3a1.32 1.32 0 0 0 .63 1.12v.54a.73.73 0 0 0 0 .09.35.35 0 0 0 0 .07.42.42 0 0 0 0 .09.64.64 0 0 0 .06.12l.05.09v.07l.09.12v.06l.09.09.17.14a2.43 2.43 0 0 0 .82.41 4.71 4.71 0 0 0 .8.15 5.52 5.52 0 0 0 .77 0h.79a7 7 0 0 0 1.55-.32l.61-.2c.28-.09.54-.19.8-.25a1.16 1.16 0 0 1 .55 0l.22.08.08.05.07.05a1.63 1.63 0 0 1 .34.47 2.54 2.54 0 0 1 .21.59 1 1 0 0 1 0 .55.41.41 0 0 1-.07.14H15.98l-.43-.09-.27-.06a3.87 3.87 0 0 0-.93-.1 2.42 2.42 0 0 0-.56.08 2.29 2.29 0 0 0-.55.23l-.12.07-.12.1-.05.05-.07.07-.13.14a1.33 1.33 0 0 0-.14.21l-.06.1-.06.13a4.11 4.11 0 0 0-.27.83c0 .24-.09.48-.12.74-.06.46-.1.89-.12 1.26v.31H14zm18.81-12.16a3.3 3.3 0 0 0 1.53-2.05v-.1h10.72a4.34 4.34 0 0 0 1.71-.35 4.27 4.27 0 0 0 2-1.79 15.48 15.48 0 0 0 0-15.71 4.21 4.21 0 0 0-2-1.79 4.34 4.34 0 0 0-1.71-.35H34.45v-.1A3.3 3.3 0 0 0 32.89.13a1.51 1.51 0 0 0-.7-.13 1.13 1.13 0 0 0-.4.13c-.43.34.48 1.54 1 2.15H19.15a5.5 5.5 0 0 1-1.28-.15A5.51 5.51 0 0 0 16.6 2H6.41a4.71 4.71 0 0 0-1.7.31C2.76 3 .86 4.17.47 6.17a40.05 40.05 0 0 0 0 12.21c.39 2 2.29 3.15 4.24 3.88a4.71 4.71 0 0 0 1.7.31h2.07a1.16 1.16 0 0 1 1.64-.11l.11.11h6.36a5.51 5.51 0 0 0 1.28-.15 5.5 5.5 0 0 1 1.28-.15h13.6c-.49.61-1.4 1.81-1 2.15a1.13 1.13 0 0 0 .4.13 1.51 1.51 0 0 0 .7-.13zM49 18.12l-.07.08V18.32l-.06.07-.06.08-.06.09-.06.1v.1l-.06.11c0 .08-.07.15-.1.23a2.62 2.62 0 0 0-.08.25c0 .08 0 .16-.05.25s0 .17 0 .25v.35a.83.83 0 0 0 0 .1.48.48 0 0 0 0 .1.47.47 0 0 1 0 .09v.26l-.07-.08-.05-.05-.05-.07-.23-.08v-.09l-.05-.12v-.4a1.26 1.26 0 0 1 0-.15.72.72 0 0 1 0-.08v-.08a1.75 1.75 0 0 1 0-.31 1.86 1.86 0 0 1 .11-.3v-.14l.08-.13a.81.81 0 0 1 .09-.11v-.05l.05-.05.1-.09.1-.07.1-.06.09-.05h.25zm-14.37 1.45a.93.93 0 0 1-1.15.62l-5.28-1.44a.91.91 0 0 1-.66-1.07 26.64 26.64 0 0 0 0-10.81.91.91 0 0 1 .66-1.07l5.28-1.45a1 1 0 0 1 1.15.65 26.4 26.4 0 0 1 0 14.57zM48.31 3.8a.66.66 0 0 1 0 .11.47.47 0 0 1 0 .07.74.74 0 0 0 0 .08V4.95l.05.25a2.62 2.62 0 0 0 .08.25c0 .08.07.15.1.23l.06.11v.1l.06.1.06.09.06.08.06.07V6.35l.07.08h-.25l-.09-.05-.1-.06-.1-.07-.1-.09.02-.16v-.05l-.09-.11-.08-.13v-.14a1.86 1.86 0 0 1-.11-.3 1.73 1.73 0 0 1 0-.32v-.03a.72.72 0 0 1 0-.08.84.84 0 0 1 0-.15v-.15a.22.22 0 0 1 0-.06v-.2L48 4.17l.05-.09.06-.08.05-.07.05-.05.07-.08zM12 3.8a.11.11 0 0 1 0-.21h20.14a.11.11 0 0 1 0 .21L27 5.28a4.75 4.75 0 0 1-1.35.19h-8.81a4.91 4.91 0 0 1-2-.42zM9.12 19a40.36 40.36 0 0 1 0-13.53.52.52 0 0 1 .61-.41h.12l2.78 1.31a.49.49 0 0 1 .27.63 40.68 40.68 0 0 0 0 10.62.49.49 0 0 1-.28.52L9.84 19.4a.51.51 0 0 1-.73-.4zm2.95 2a.11.11 0 0 1 0-.21l2.82-1.25a4.91 4.91 0 0 1 2-.42h8.71a4.75 4.75 0 0 1 1.35.19l5.22 1.47a.11.11 0 0 1 0 .22h-20.1zm3.63 25.39a2 2 0 0 1-2.06-1.85v-.09c0-1.16 2.06-4.53 2.06-4.53 0 2.09 2.06 3.37 2.06 4.53a2 2 0 0 1-2 1.94h-.1zm15.4-9.08h-2.54a.33.33 0 0 0-.33.32.33.33 0 0 1-.33.33h-12a.33.33 0 0 1-.33-.33.33.33 0 0 0-.33-.32h-4.16a2.78 2.78 0 0 0-2.82 2.74v6.21A2.78 2.78 0 0 0 11.07 49h20a2.78 2.78 0 0 0 2.82-2.73v-6.22a2.78 2.78 0 0 0-2.82-2.74zm-15.58 9.87c-2.66 0-3.7-1.89-3.7-4.05a3.7 3.7 0 0 1 3.86-4c2.83 0 3.63 2.09 3.63 3.89 0 3-1.57 4.16-3.79 4.16zm7.48-.54a.45.45 0 0 1-.46.45h-1.32a.45.45 0 0 1-.46-.45v-7a.45.45 0 0 1 .46-.45h1.36a.45.45 0 0 1 .46.45zm7.32 0a.45.45 0 0 1-.46.45h-4.33a.45.45 0 0 1-.46-.45v-7a.45.45 0 0 1 .46-.45h1.36a.45.45 0 0 1 .46.45v5.68a.45.45 0 0 0 .46.44h2.09a.45.45 0 0 1 .46.45v.4zm-2.64-8.92H16.07a.24.24 0 0 1-.24-.23.24.24 0 0 1 .24-.23h11.65a.24.24 0 0 1 .24.23.24.24 0 0 1-.23.24z"/>
        </g>
    </g>
</symbol><symbol id="icon-accordion9" viewBox="0 0 75.99 26">
    
    <title>
        accordion-ic9
    </title>
    <g id="Layer_2" data-name="Layer 2">
        <g id="Layer_1-2" data-name="Layer 1">
            <path id="Form_12" data-name="Form 12" class="cls-1" d="M1.21 17.47h.12l.17-.05.21-.1.23-.14a1.82 1.82 0 0 0 .22-.18l.1-.12.1-.14a1 1 0 0 0 .09-.15l.08-.16V16.14a1.78 1.78 0 0 0 0-.33 1.73 1.73 0 0 0-.07-.59 1.32 1.32 0 0 0-.18-.37l-.07-.1v.14a3.06 3.06 0 0 1 0 .36 2.63 2.63 0 0 1 0 .5 2.23 2.23 0 0 1-.07.27 2.88 2.88 0 0 1-.1.28 2.09 2.09 0 0 1-.13.26 2.51 2.51 0 0 1-.15.25 3.56 3.56 0 0 1-.32.39c-.1.11-.19.19-.26.25l-.1.09h.05zm12.71 4.71a1.3 1.3 0 1 0 1.3-1.31 1.3 1.3 0 0 0-1.31 1.31zm2.33 0a1 1 0 1 1-1-1 1 1 0 0 1 1 1zm-3.59-.46a2.64 2.64 0 0 1 .31-.86 2.43 2.43 0 0 1 .41-.54 2.35 2.35 0 0 1 .52-.41 2.47 2.47 0 0 1 .87-.32.56.56 0 0 0 .46-.55v-1.38a.2.2 0 0 0-.2-.2A4.57 4.57 0 0 0 13 18a.2.2 0 0 0-.1.13 2.63 2.63 0 0 1-.67 1 2.41 2.41 0 0 1-1 .67.21.21 0 0 0-.12.1 4.72 4.72 0 0 0-.55 2 .19.19 0 0 0 .18.2h1.36a.55.55 0 0 0 .55-.46zm2.63-3.36v.28a3.4 3.4 0 0 1 1.3.28 3.3 3.3 0 0 1 1.11.76 3.46 3.46 0 0 1 .75 1.12 3.6 3.6 0 0 1 0 2.76 3.53 3.53 0 0 1-1.86 1.89 3.46 3.46 0 0 1-2.73 0A3.53 3.53 0 0 1 12 23.56a3.49 3.49 0 0 1-.27-1.31h-.27a3.78 3.78 0 1 0 3.85-3.89zm-1.93 3.82a1.86 1.86 0 1 0 1.86-1.88 1.86 1.86 0 0 0-1.87 1.88zm3.45 0a1.59 1.59 0 1 1-1.59-1.6 1.59 1.59 0 0 1 1.58 1.6zM62 20.87a1.32 1.32 0 1 0 1.3 1.33 1.31 1.31 0 0 0-1.3-1.33zm0 2.35a1 1 0 1 1 1-1.05 1 1 0 0 1-1 1.05zm0-2.92a1.89 1.89 0 1 0 1.86 1.91A1.87 1.87 0 0 0 62 20.3zm0 3.49a1.6 1.6 0 1 1 1.59-1.62A1.6 1.6 0 0 1 62 23.79zm0-5.42a3.81 3.81 0 1 0 3.77 3.86A3.8 3.8 0 0 0 62 18.37zm0 7.34a3.53 3.53 0 1 1 3.49-3.57A3.51 3.51 0 0 1 62 25.71zM48 22c.13-.52.26-1 .48-1.67a12.94 12.94 0 0 1 .81-1.88A24.25 24.25 0 0 0 51 13.93q1-3.41 1.9-6.81A3.92 3.92 0 0 0 53 5.7a4.17 4.17 0 0 0-.81-2.35l-.82-.85C50 1.32 48.44.37 46.59 1.19a9.16 9.16 0 0 0-1.67 1c-.42 1.9-.78 3.81-1.1 5.73a59.2 59.2 0 0 0-.64 7.08q0 3.81.17 7.6a22.1 22.1 0 0 0 1.73 1.58 15.79 15.79 0 0 0 1.28 1c.23.15.48 0 .7-.48a12.75 12.75 0 0 0 .5-1.31c.18-.52.29-1 .4-1.41zM44.2 9.64c-.11 0-.18-.23-.14-.51q.35-2.8.86-5.6a1.75 1.75 0 0 1 .49-1.07 11.37 11.37 0 0 1 1.33-.6c1.72-.6 3 .44 4.14 1.61.21.25.32.39.54.66A4.21 4.21 0 0 1 52.11 6a3 3 0 0 1-.2 1.62A2.1 2.1 0 0 1 50.52 9c-2.12.18-4.22.38-6.32.66zm2.63-7.51l-.18.07h2.14a2.62 2.62 0 0 0-1.07-.2 2.66 2.66 0 0 0-.89.16zm-3.67 20.7l-.08-.08v-.07H43V21.3q-.13-3.12-.11-6.29c0-1.57.15-3.14.33-4.73v-.18c.08-.74.18-1.5.3-2.26.22-1.35.46-2.64.71-3.89l.31-1.75h.05v-.22l.09-.07c.33-.23.59-.4.87-.55h-1.39a34.91 34.91 0 0 0-12.44 2.29c0 .39-.09.78-.14 1.18A35 35 0 0 1 43 2.28h.67l-.9 5.12a41.3 41.3 0 0 0-.63 7.17v8.11h-11c0 .7.07 1.39.11 2.06h14l-.4-.31c-.85-.7-1.66-1.51-1.75-1.6zm32.48-8.14A7.69 7.69 0 0 1 75 9.21a.68.68 0 0 0-.22-.69L69.6 8l2.76-4c.14-.16.3-.07.46.07l1.36.93a.46.46 0 0 0 .54-.13.42.42 0 0 0 .12-.36l-1.19-.85a7.82 7.82 0 0 1-.58-.54.84.84 0 0 0-.88 0 4.74 4.74 0 0 0-2.09 1.84l-1.7 2.78a1.44 1.44 0 0 1-.29-.1l-2.24-1.56a29.4 29.4 0 0 0-9.17-3.89l-.52-.11a33.42 33.42 0 0 0-5.85-.72 11.94 11.94 0 0 1 1.23.92l.15.15a21.17 21.17 0 0 1 6.63 2.2l1.44.76a3.49 3.49 0 0 1 1.67 1.95 1.48 1.48 0 0 1-.14 1.23l-2.57 4.33A12.57 12.57 0 0 1 56 16.17a7.65 7.65 0 0 0-1.34 1.42c-.67.93-.78 1.52-1.49 2.65a11.85 11.85 0 0 1-1 1.42 2.69 2.69 0 0 1-1.93 1h-2.18c-.06.24-.14.49-.22.77a12.38 12.38 0 0 1-.49 1.28h7.16a.67.67 0 0 0 .66-.77 15.78 15.78 0 0 1-.15-2.1 6.8 6.8 0 0 1 6.59-6.94 6.67 6.67 0 0 1 6.69 6.66v.64a.67.67 0 0 0 .61.72h.18l.87-.17a4.41 4.41 0 0 0 2.6-1.12 4.47 4.47 0 0 0 1-1.26 8.11 8.11 0 0 1 1.35-1.93l.72-.78a3.06 3.06 0 0 0 .07-3zM25.78 6.57a23.84 23.84 0 0 0-1.33 2.14l-.24.48a2 2 0 0 0-.17.68v.07l.39-.06a5.35 5.35 0 0 1 2.16-2.52 34.5 34.5 0 0 1 4.1-2.15c.05-.41.11-.82.17-1.21a35.07 35.07 0 0 0-4.18 2.05zm6.1-6.22l-.31.14a15.61 15.61 0 0 0-7.2 6.76 6.65 6.65 0 0 0-.68 1.84.54.54 0 0 0-.41-.2 13.09 13.09 0 0 0-1.65 0 1.17 1.17 0 0 0-1 1.29.93.93 0 0 0 1.11 1c.73-.16 1-.26 1.56-.37h.09a41.37 41.37 0 0 0 .3 10.43c0 .22.06.33.1.55a1.09 1.09 0 0 0 .25.6 59.88 59.88 0 0 0 5.74 3.26.84.84 0 0 0 1.2-.82c-.17-2.86-.26-5.72-.31-8.58 0-3.18.1-6.34.38-9.5.21-2.15.46-4.28.79-6.41zm-1.29 7.92a1.49 1.49 0 0 1-.5 1.25c-2.07.26-4.11.35-6.17.73a3.19 3.19 0 0 1 0-.37v-.46a.76.76 0 0 1 0-.34l.25-.49a16.51 16.51 0 0 1 6.25-6.75 9.59 9.59 0 0 0 .87-.52c.13-.08.18.26.12.67-.32 2.09-.6 4.19-.84 6.3zm-7.29.34a.76.76 0 0 1 .22 0 7.38 7.38 0 0 1 .33-.95l-1.55.9h1zm.26 13.24l-.1-.55a41.57 41.57 0 0 1-.34-10.11l-.37.09-.91.22a1.12 1.12 0 0 1-.26 0 1.17 1.17 0 0 1-.74-.26 1.32 1.32 0 0 1-.45-1.05 1.85 1.85 0 0 1 .17-.8l-9.68-7.07A12.9 12.9 0 0 0 5.29 0l1 .8L20 10.74 1.53 14.28l-.08.2 1.91-.27c1.85-.27 2.06.13 1.84.39l-1.31 1.53a5.72 5.72 0 0 1-3.53 1.95l-.36.05a4.63 4.63 0 0 0 .15 1.1L1 22.4l-.12.71a1.08 1.08 0 0 0 .87 1.25h.13l5.84.32a.68.68 0 0 0 .7-.74c-.06-.62-.13-1.26-.15-1.95a6.78 6.78 0 0 1 6.46-7.07H15a6.67 6.67 0 0 1 6.58 6.71c0 .86 0 1.61-.07 2.38a.67.67 0 0 0 .61.72h5.36C26.17 24 25 23.3 23.93 22.64a1.29 1.29 0 0 1-.38-.79z"/>
        </g>
    </g>
</symbol></svg>